<svg width="36" height="36" viewBox="0 0 36 36" fill="none" xmlns="http://www.w3.org/2000/svg">
<rect x="0.751953" y="0.75" width="33.8854" height="33.8854" rx="11.25" fill="#0DA049" fill-opacity="0.08" stroke="#0DA049" stroke-width="1.5"/>
<path d="M21.9077 17.0754C21.5538 17.0754 21.274 16.7874 21.274 16.4418C21.274 16.1373 20.9695 15.5037 20.4593 14.9523C19.9574 14.4174 19.406 14.1047 18.9452 14.1047C18.5913 14.1047 18.3115 13.8167 18.3115 13.471C18.3115 13.1254 18.5995 12.8374 18.9452 12.8374C19.7681 12.8374 20.6321 13.2818 21.3892 14.08C22.0969 14.8289 22.5495 15.7588 22.5495 16.4335C22.5495 16.7874 22.2615 17.0754 21.9077 17.0754Z" fill="#0DA049"/>
<path d="M24.879 17.0755C24.5251 17.0755 24.2453 16.7875 24.2453 16.4419C24.2453 13.5205 21.8671 11.1505 18.954 11.1505C18.6001 11.1505 18.3203 10.8625 18.3203 10.5169C18.3203 10.1712 18.6001 9.875 18.9457 9.875C22.5666 9.875 25.5126 12.821 25.5126 16.4419C25.5126 16.7875 25.2246 17.0755 24.879 17.0755Z" fill="#0DA049"/>
<path d="M16.5011 20.5318L14.9787 22.0542C14.6578 22.3751 14.1476 22.3751 13.8184 22.0624C13.7279 21.9719 13.6374 21.8896 13.5468 21.7991C12.6992 20.9432 11.9339 20.0463 11.2509 19.1081C10.5761 18.17 10.033 17.2319 9.63798 16.302C9.25121 15.3639 9.05371 14.4669 9.05371 13.611C9.05371 13.0515 9.15246 12.5166 9.34996 12.0228C9.54746 11.5208 9.86017 11.06 10.2963 10.6485C10.823 10.1301 11.399 9.875 12.008 9.875C12.2384 9.875 12.4688 9.92438 12.6745 10.0231C12.8885 10.1219 13.0778 10.27 13.2259 10.484L15.1351 13.1749C15.2832 13.3806 15.3902 13.5699 15.4642 13.7509C15.5383 13.9237 15.5794 14.0966 15.5794 14.2529C15.5794 14.4504 15.5218 14.6479 15.4066 14.8372C15.2996 15.0265 15.1433 15.224 14.9458 15.4215L14.3204 16.0716C14.2299 16.1621 14.1887 16.2691 14.1887 16.4007C14.1887 16.4666 14.1969 16.5242 14.2134 16.59C14.2381 16.6558 14.2628 16.7052 14.2792 16.7546C14.4274 17.0261 14.6825 17.38 15.0445 17.8079C15.4149 18.2358 15.8099 18.672 16.2378 19.1081C16.3201 19.1904 16.4106 19.2727 16.4929 19.355C16.822 19.6759 16.8303 20.2026 16.5011 20.5318Z" fill="#0DA049"/>
<path d="M25.4879 23.3132C25.4879 23.5436 25.4467 23.7823 25.3644 24.0127C25.3397 24.0785 25.3151 24.1443 25.2821 24.2102C25.1422 24.5064 24.9612 24.7862 24.7226 25.0495C24.3193 25.4939 23.8749 25.8149 23.373 26.0206C23.3647 26.0206 23.3565 26.0288 23.3483 26.0288C22.8628 26.2263 22.3361 26.3333 21.7683 26.3333C20.9289 26.3333 20.0319 26.1358 19.0856 25.7326C18.1392 25.3293 17.1929 24.7862 16.2547 24.1032C15.9338 23.8645 14.074 22.2845 13.7695 22.0294L16.4605 19.3385C16.6909 19.5113 18.4355 20.9843 18.6083 21.0749C18.6494 21.0913 18.6988 21.116 18.7564 21.1407C18.8222 21.1654 18.8881 21.1736 18.9621 21.1736C19.102 21.1736 19.209 21.1242 19.2995 21.0337L19.9249 20.4165C20.1307 20.2108 20.3282 20.0544 20.5174 19.9557C20.7067 19.8405 20.896 19.7829 21.1017 19.7829C21.2581 19.7829 21.4227 19.8158 21.6037 19.8899C21.7847 19.9639 21.974 20.0709 22.1797 20.2108L24.9036 22.1447C25.1176 22.2928 25.2657 22.4656 25.3562 22.6713C25.4385 22.877 25.4879 23.0828 25.4879 23.3132Z" fill="#0DA049"/>
</svg>
