<svg width="36" height="36" viewBox="0 0 36 36" fill="none" xmlns="http://www.w3.org/2000/svg">
<rect x="0.751953" y="0.75" width="33.8854" height="33.8854" rx="11.25" fill="#FFA80A" fill-opacity="0.08" stroke="#FFA80A" stroke-width="1.5"/>
<path d="M20.69 10.665L13.259 13.1337C8.26392 14.8042 8.26392 17.5281 13.259 19.1904L15.4644 19.9228L16.1968 22.1282C17.8591 27.1233 20.5912 27.1233 22.2535 22.1282L24.7305 14.7055C25.8332 11.3727 24.0228 9.55403 20.69 10.665ZM20.9533 15.0923L17.8262 18.2358C17.7028 18.3592 17.5464 18.4168 17.3901 18.4168C17.2337 18.4168 17.0774 18.3592 16.9539 18.2358C16.7153 17.9972 16.7153 17.6022 16.9539 17.3635L20.081 14.22C20.3196 13.9813 20.7146 13.9813 20.9533 14.22C21.1919 14.4586 21.1919 14.8536 20.9533 15.0923Z" fill="#FFA80A"/>
</svg>
